<?xml version="1.0" standalone="no"?>
<!DOCTYPE svg PUBLIC "-//W3C//DTD SVG 20010904//EN"
 "http://www.w3.org/TR/2001/REC-SVG-20010904/DTD/svg10.dtd">
<svg version="1.0" xmlns="http://www.w3.org/2000/svg"
 width="640.000000pt" height="640.000000pt" viewBox="0 0 640.000000 640.000000"
 preserveAspectRatio="xMidYMid meet">

<g transform="translate(0.000000,640.000000) scale(0.100000,-0.100000)"
fill="#000000" stroke="none">
<path d="M5136 4752 c-245 -180 -445 -333 -446 -341 0 -20 -1388 -2779 -1416
-2818 -13 -17 -33 -35 -44 -38 -25 -8 -66 16 -74 43 -4 10 45 270 109 577 105
515 113 561 100 582 -21 32 -45 30 -217 -23 -82 -25 -159 -44 -170 -42 -12 2
-30 15 -40 29 -20 26 -20 26 22 233 23 115 39 210 37 213 -6 5 -850 -614 -855
-627 -2 -4 27 -62 64 -127 725 -1281 910 -1602 941 -1632 32 -31 39 -33 85
-29 35 4 57 12 73 29 26 27 -12 -40 1082 1919 1278 2288 1253 2243 1253 2279
0 35 -26 87 -46 95 -7 3 -213 -142 -458 -322z"/>
</g>
</svg>
